<svg width="270" height="527" xmlns="http://www.w3.org/2000/svg" data-name="Layer 1">

 <g>
  <title>Layer 1</title>
  <circle id="svg_1" fill="#e8f0f2" r="46" cy="481.00004" cx="140.38623"/>
  <circle id="svg_9" fill="#f2f2f2" r="24" cy="323.00004" cx="120.38623"/>
  <path id="svg_12" fill="#e8f0f2" d="m135.45874,1.00346c-71.89185,0.50782 -130.75611,58.92987 -131.77735,130.81635c-0.00946,0.66369 -0.01381,5.33048 -0.01324,11.43422a33.74778,33.74778 0 0 0 33.74387,33.746l0.00007,0a33.76855,33.76855 0 0 0 33.76114,-33.79775c-0.00343,-4.15211 -0.00551,-7.02584 -0.00551,-7.20227a64.00037,64.00037 0 1 1 98.52027,53.8794l0.01171,0.01422s-48.02832,30.91956 -62.67089,73.33545l0.01245,0.003a94.00389,94.00389 0 0 0 -3.87354,26.76794c0,3.72538 0.21916,36.32138 0.64261,62.77767a34.78649,34.78649 0 0 0 34.79009,34.22233l0.00007,0a34.79588,34.79588 0 0 0 34.79384,-35.01061c-0.14706,-24.22912 -0.22661,-52.44168 -0.22661,-54.48939c0,-26.04473 25.12525,-51.99475 45.76367,-68.91741c23.76587,-19.48694 40.86792,-46.04291 47.73706,-75.99909a86.7618,86.7618 0 0 0 2.49927,-18.8335a132.75,132.75 0 0 0 -133.70898,-132.74656z"/>
  <path id="svg_29" fill="#3f3d56" d="m46.93994,161.03837l0,0a33.748,33.748 0 0 1 -33.74414,-33.746c-0.00049,-6.10376 0.0039,-10.77051 0.01318,-11.4342a131.50724,131.50724 0 0 1 15.35889,-59.90875a131.80321,131.80321 0 0 0 -25.35889,75.90875c-0.00928,0.66369 -0.01367,5.33044 -0.01318,11.4342a33.748,33.748 0 0 0 33.74414,33.746l0,0a33.77281,33.77281 0 0 0 32.48779,-24.59055a33.62247,33.62247 0 0 1 -22.48779,8.59055z"/>
  <path id="svg_30" fill="#3f3d56" d="m137.74611,72.1093a64.00385,64.00385 0 0 1 55.65918,89.413a63.9972,63.9972 0 1 0 -107.42578,-66.98523a63.87073,63.87073 0 0 1 51.7666,-22.42777z"/>
  <path id="svg_31" fill="#3f3d56" d="m148.12793,371.03837l0,0a34.78682,34.78682 0 0 1 -34.79,-34.22235c-0.42334,-26.45629 -0.64258,-59.0523 -0.64258,-62.77765a94.00389,94.00389 0 0 1 3.87354,-26.76794l-0.01221,-0.003a95.069,95.069 0 0 1 5.49414,-12.70087a110.04745,110.04745 0 0 0 -15.49414,28.70087l0.01221,0.003a94.00389,94.00389 0 0 0 -3.87354,26.76794c0,3.72535 0.21924,36.32136 0.64258,62.77765a34.78682,34.78682 0 0 0 34.79,34.22235l0,0a34.80287,34.80287 0 0 0 33.40185,-25.04846a34.66005,34.66005 0 0 1 -23.40185,9.04846z"/>
  <path id="svg_45" fill="#3f3d56" d="m127.25154,515.78004a45.99375,45.99375 0 0 1 -17.07033,-71.4888a45.99715,45.99715 0 1 0 62.56892,66.464a45.96919,45.96919 0 0 1 -45.49859,5.0248z"/>
 </g>
</svg>