<svg width="844.67538" height="595.26155" xmlns="http://www.w3.org/2000/svg" data-name="Layer 1">

 <g>
  <title>Layer 1</title>
  <path id="svg_2" fill="#f2f2f2" d="m706.19945,591.41565c25.7345,-7.72868 53.09381,-15.78786 73.50313,-34.161c18.23763,-16.41813 30.55024,-41.48912 22.99475,-66.1115c-7.54,-24.57187 -30.12421,-40.95629 -53.44165,-49.10532c-13.225,-4.62188 -27.06087,-7.18608 -40.89147,-9.20037c-15.03485,-2.18967 -30.13615,-3.98373 -45.23026,-5.71012q-91.67724,-10.48563 -184.04386,-12.811c-30.38456,-0.76525 -60.76358,-0.74682 -91.15243,-0.3057c-27.13937,0.394 -55.72215,0.38417 -80.899,-11.15051c-19.57846,-8.96979 -37.348,-25.28881 -42.8033,-46.73352c-6.29728,-24.75467 5.318,-49.96382 21.97993,-67.892c8.78265,-9.45011 19.04731,-17.40385 29.63621,-24.71743c11.4874,-7.93416 23.37539,-15.30643 35.52084,-22.18813a494.63414,494.63414 0 0 1 74.7667,-34.4685c12.74555,-4.63445 25.68047,-8.63281 38.72759,-12.32143c11.017,-3.11469 22.06832,-6.23382 32.71588,-10.47748c20.58349,-8.20371 40.161,-22.09985 45.39464,-44.88142c4.96024,-21.59145 -3.40305,-45.03067 -18.065,-61.07057c-16.96282,-18.557 -42.53949,-26.69181 -67.06007,-28.008c-27.52842,-1.47765 -54.42246,5.412 -80.29678,14.15585c-27.59673,9.326 -54.59854,20.04924 -82.77827,27.60322a556.95783,556.95783 0 0 1 -85.19574,15.83655c-14.08227,1.49951 -28.59019,3.19273 -42.75626,2.04475c-11.87246,-0.96211 -23.68426,-4.45375 -32.43408,-12.87964c-7.50252,-7.22477 -11.97184,-17.154 -10.4353,-27.63238c0.27909,-1.90318 3.17022,-1.09407 2.89284,0.79752c-1.8704,12.75513 6.79991,24.50863 17.48415,30.5293c12.34817,6.95832 27.37408,6.9678 41.1218,6.172a537.82528,537.82528 0 0 0 88.51452,-12.79561c28.59252,-6.53059 56.16382,-15.86633 83.70391,-25.83908c26.15594,-9.47153 52.89665,-18.71579 80.84009,-20.76729c24.24611,-1.78007 49.75165,1.75222 70.87426,14.42313c18.56387,11.136 32.21482,29.70722 36.56451,51.01813c4.25044,20.82462 -1.63632,41.785 -17.4,56.31714c-16.32147,15.04633 -38.7007,21.47909 -59.55655,27.40368c-26.45223,7.51437 -52.33726,16.29809 -77.39248,27.7031a485.82354,485.82354 0 0 0 -72.8001,40.92805c-22.24625,15.20228 -44.2007,34.33058 -51.23658,61.45126c-3.27739,12.63313 -2.67227,26.03212 2.8116,37.96461c4.87605,10.60993 12.90656,19.53469 22.26169,26.41853c22.32074,16.42443 50.45266,19.79665 77.41421,20.13212c30.28143,0.37678 60.56382,-0.64518 90.85508,-0.148q92.5988,1.51977 184.81863,11.27265q23.108,2.44594 46.15759,5.40711c13.82158,1.776 27.68967,3.54058 41.27849,6.69464c24.16222,5.60822 47.67389,16.39167 62.69178,36.878a61.31938,61.31938 0 0 1 11.94709,30.44593c1.05134,11.52384 -1.76985,23.0693 -6.98016,33.32083c-11.53233,22.69042 -33.13363,37.12286 -56.07337,46.60471c-12.28683,5.0786 -25.03167,8.926 -37.7516,12.74609c-1.853,0.55651 -2.64487,-2.338 -0.79752,-2.89283l-0.00008,-0.00007z"/>
  <circle id="svg_3" fill="#f2f2f2" r="24" cy="69.5" cx="125.89281"/>
  <circle id="svg_4" fill="#f2f2f2" r="24" cy="115" cx="292.39281"/>
  <circle id="svg_5" fill="#f2f2f2" r="24" cy="24" cx="433.39281"/>
  <circle id="svg_6" fill="#f2f2f2" r="24" cy="126" cx="521.39281"/>
  <circle id="svg_7" fill="#f2f2f2" r="24" cy="244" cx="402.39281"/>
  <circle id="svg_8" fill="#f2f2f2" r="24" cy="301" cx="251.39281"/>
  <circle id="svg_9" fill="#f2f2f2" r="24" cy="390" cx="411.39281"/>
  <circle id="svg_10" fill="#f2f2f2" r="24" cy="440" cx="583.39281"/>
  <circle id="svg_11" fill="#f2f2f2" r="24" cy="429" cx="784.39281"/>
  <path id="svg_13" fill="#3f3d56" d="m843.48469,595.26156l-842.294,0a1.19069,1.19069 0 0 1 0,-2.38137l842.294,0a1.19068,1.19068 0 0 1 0,2.38137z"/>
  <circle id="svg_14" fill="#2f2e41" r="30" cy="242.9959" cx="628.44885"/>
  <polygon id="svg_15" fill="#a0616a" points="573.012 582.129 560.753 582.129 554.92 534.841 573.015 534.841 573.012 582.129"/>
  <path id="svg_16" fill="#2f2e41" d="m551.99554,578.62562l23.64387,0a0,0 0 0 1 0,0l0,14.88687a0,0 0 0 1 0,0l-38.53073,0a0,0 0 0 1 0,0l0,0a14.88686,14.88686 0 0 1 14.88686,-14.88687z"/>
  <polygon id="svg_17" fill="#a0616a" points="668.012 582.129 655.753 582.129 649.92 534.841 668.015 534.841 668.012 582.129"/>
  <path id="svg_18" fill="#2f2e41" d="m646.99554,578.62562l23.64387,0a0,0 0 0 1 0,0l0,14.88687a0,0 0 0 1 0,0l-38.53073,0a0,0 0 0 1 0,0l0,0a14.88686,14.88686 0 0 1 14.88686,-14.88687z"/>
  <circle id="svg_19" fill="#a0616a" r="24.56103" cy="248.61007" cx="623.88979"/>
  <path id="svg_20" fill="#2f2e41" d="m638.52892,352.40588l10.98975,-25.25a31.38253,31.38253 0 0 0 -6.94971,-35.6a31.87322,31.87322 0 0 0 -3.07031,-2.67a30.93522,30.93522 0 0 0 -18.98975,-6.57a32.179,32.179 0 0 0 -13.3999,2.98c-0.36035,0.16 -0.71,0.33 -1.07031,0.5c-0.68994,0.33 -1.36963,0.69 -2.02979,1.06a31.67823,31.67823 0 0 0 -15.70019,23.88l-4.8501,40.64c-1.21973,3.19 -44.73975,118.39 -29.51953,206.34a4.46692,4.46692 0 0 0 3.81982,3.67l15.43018,2.1a4.49661,4.49661 0 0 0 5.00976,-3.53l25.89014,-123.41a3.50323,3.50323 0 0 1 6.79981,-0.23l36.58007,129.78a4.47129,4.47129 0 0 0 4.31006,3.28a5.12184,5.12184 0 0 0 0.87012,-0.08l18.84961,-3.63a4.471,4.471 0 0 0 3.63037,-4.81c-2.77002,-30.89 -17.49023,-185.61998 -36.6001,-208.45z"/>
  <path id="svg_21" fill="#a0616a" d="m528.43935,269.04987a10.05576,10.05576 0 0 0 10.59434,11.20341l13.72894,32.99236l10.385,-15.3943l-14.62937,-28.97a10.11027,10.11027 0 0 0 -20.07892,0.16852l0.00001,0.00001z"/>
  <path id="svg_22" fill="#a0616a" d="m622.52794,385.62631a10.05577,10.05577 0 0 0 8.42651,-12.91316l28.88533,-21.03846l-17.39036,-6.51224l-24.76387,20.97687a10.11028,10.11028 0 0 0 4.84239,19.487l0,-0.00001z"/>
  <path id="svg_23" fill="#2f2e41" d="m575.43957,335.24102a17.05692,17.05692 0 0 1 -3.29834,-0.32519a16.30539,16.30539 0 0 1 -11.94751,-9.61621l-19.23438,-23.45313a4.50075,4.50075 0 0 1 1.11109,-6.68066l13.68432,-8.4707a4.50007,4.50007 0 0 1 6.21533,1.49023l13.5564,22.334l25.96143,-19.18658a9.72146,9.72146 0 0 1 11.30978,15.56156l-25.91186,23.63672a16.25271,16.25271 0 0 1 -11.44626,4.70996z"/>
  <path id="svg_24" fill="#2f2e41" d="m645.58969,370.51348c-0.03515,0 -0.07055,0 -0.10571,-0.001a4.50783,4.50783 0 0 1 -3.31079,-1.57031l-12.16626,-14.19336a4.49979,4.49979 0 0 1 0.92041,-6.67286l22.78149,-15.1875l-20.63842,-24.8125a9.721,9.721 0 0 1 14.8872,-12.18261l25.0835,24.51269a16.52481,16.52481 0 0 1 -3.67529,26.94043l-20.50122,21.75391a4.50742,4.50742 0 0 1 -3.27491,1.41311z"/>
  <path id="svg_25" fill="#e6e6e6" d="m617.64476,318.21436a4.63212,4.63212 0 0 1 -0.584,-0.03711a4.46111,4.46111 0 0 1 -3.71045,-3.06885l-9.14234,-28.02929a3.08255,3.08255 0 0 1 1.594,-3.72461l0.29663,-0.14014c0.269,-0.12793 0.5354,-0.25439 0.80737,-0.37549a32.57412,32.57412 0 0 1 13.603,-3.023a31.327,31.327 0 0 1 17.16138,5.15674a3.13007,3.13007 0 0 1 0.90136,4.29443l-17.15009,26.86774a4.45513,4.45513 0 0 1 -3.77686,2.07958z"/>
  <circle id="svg_26" fill="#2f2e41" r="9.81668" cy="219.78616" cx="652.1011"/>
  <path id="svg_27" fill="#2f2e41" d="m618.44884,208.99591l0,0a26,26 0 0 0 -26,25.99994l0,11.00006l13.5293,0l6.4707,-11l1.94141,11l41.05859,0l-11,-11.00006a26,26 0 0 0 -26,-25.99994z"/>
  <path id="svg_28" fill="#2f2e41" d="m657.14652,213.06199a15.15,15.15 0 0 1 16.48081,-10.39558c6.256,1.04586 11.20228,6.07455 14.14944,11.69107s4.30806,11.90252 6.28935,17.92793s4.79124,12.08362 9.79306,15.984s12.67721,4.9584 17.58966,0.94607a20.11809,20.11809 0 0 1 -37.47706,7.18124c-2.59206,-4.61172 -3.26121,-10.01684 -4.02988,-15.251s-1.7674,-10.6498 -4.86211,-14.94043s-8.88772,-7.09293 -13.80374,-5.13859l-4.12953,-8.00471z"/>
  <polygon id="svg_32" fill="#ffb8b8" points="126.541 582.585 138.8 582.584 144.633 535.296 126.538 535.297 126.541 582.585"/>
  <path id="svg_33" transform="rotate(179.997 464.054 1325.4)" fill="#2f2e41" d="m765.63008,2056.85495l38.5307,0a0,0 0 0 1 0,0l0,14.88687a0,0 0 0 1 0,0l-23.64387,0a14.88686,14.88686 0 0 1 -14.88683,-14.88686l0,0a0,0 0 0 1 0,-0.00001z"/>
  <polygon id="svg_34" fill="#ffb8b8" points="82.541 582.585 94.8 582.584 100.633 535.296 82.538 535.297 82.541 582.585"/>
  <path id="svg_35" transform="rotate(179.997 376.054 1325.41)" fill="#2f2e41" d="m633.63008,2056.8569l38.5307,0a0,0 0 0 1 0,0l0,14.88687a0,0 0 0 1 0,0l-23.64387,0a14.88686,14.88686 0 0 1 -14.88683,-14.88686l0,0a0,0 0 0 1 0,-0.00001z"/>
  <path id="svg_36" fill="#2f2e41" d="m93.25428,568.04146l-11.975,-0.62988a4.6735,4.6735 0 0 1 -4.41851,-4.967l14.31268,-158.46594l65.911,17.78562l6.35023,-1.73241l-19.85831,140.28476a4.69622,4.69622 0 0 1 -4.35816,3.94458l-12.9089,0.60147a4.67413,4.67413 0 0 1 -4.93149,-4.79557l2.339,-84.19641a1.55813,1.55813 0 0 0 -3.0832,-0.36007l-22.55693,88.81245a4.64568,4.64568 0 0 1 -4.56913,3.7255c-0.08387,0 -0.16833,-0.00203 -0.25328,-0.0071z"/>
  <circle id="svg_37" fill="#ffb8b8" r="24.56103" cy="249.75879" cx="128.74202"/>
  <path id="svg_38" fill="#ccc" d="m87.84962,321.91771l2.70056,58.26748l0.97625,21.19852a4.64221,4.64221 0 0 0 3.07432,4.17534l63.336,22.94342a4.47742,4.47742 0 0 0 1.59954,0.28045a4.64358,4.64358 0 0 0 4.66371,-4.7881l-2.59661,-104.76714a36.93044,36.93044 0 0 0 -30.7437,-35.67716c-0.61263,-0.09345 -1.23592,-0.18695 -1.8592,-0.27006a36.24947,36.24947 0 0 0 -29.165,9.44122a37.23612,37.23612 0 0 0 -11.9859,29.196l0.00003,0.00003z"/>
  <path id="svg_39" fill="#ffb8b8" d="m188.19221,416.8759a10.06355,10.06355 0 0 1 -5.36877,-15.22659l-21.478,-28.56l18.53424,-1.14707l17.55439,27.29693a10.111,10.111 0 0 1 -9.24184,17.63673l-0.00002,0z"/>
  <path id="svg_40" fill="#ccc" d="m173.09101,396.481a4.64437,4.64437 0 0 1 -2.54106,-2.51848l-32.35826,-77.09434a12.4634,12.4634 0 1 1 22.98438,-9.64693l32.3582,77.09534a4.679,4.679 0 0 1 -2.50048,6.11822l-14.36542,6.029a4.64165,4.64165 0 0 1 -3.57741,0.01724l0.00005,-0.00005z"/>
  <path id="svg_41" fill="#3f3d56" d="m120.84545,393.76164l31.07924,-59.50881a4.87826,4.87826 0 0 1 6.57494,-2.06344l45.11152,23.5601a4.87826,4.87826 0 0 1 2.06343,6.57494l-31.07927,59.50881a4.87827,4.87827 0 0 1 -6.57494,2.06344l-45.11148,-23.5601a4.87826,4.87826 0 0 1 -2.06344,-6.57494z"/>
  <path id="svg_42" fill="#ffb8b8" d="m141.68831,366.57356a10.06358,10.06358 0 0 0 -15.517,-4.46026l-29.77845,-19.75406l-0.05061,18.56963l28.28584,15.91191a10.111,10.111 0 0 0 17.06022,-10.26718l0,-0.00004z"/>
  <path id="svg_43" fill="#ccc" d="m104.03829,370.74961l-24.33677,-19.27776a17.16326,17.16326 0 0 1 -7.82343,-27.13518l22.09715,-28.95951a10.096,10.096 0 0 1 17.1296,10.28435l-17.48384,28.6l25.694,12.18686a4.67363,4.67363 0 0 1 1.94814,6.71958l-10.37175,16.41406a4.682,4.682 0 0 1 -3.16671,2.1111c-0.02565,0.00448 -0.05149,0.00846 -0.0773,0.0123a4.69555,4.69555 0 0 1 -3.60909,-0.9558z"/>
  <path id="svg_44" fill="#2f2e41" d="m110.18306,266.20525a2.13479,2.13479 0 0 1 1.85636,-2.81905a4.93046,4.93046 0 0 1 3.4761,1.71495a13.8334,13.8334 0 0 0 3.07115,2.63711c1.18812,0.59889 2.79953,0.51354 3.47685,-0.62824c0.63605,-1.07221 0.20023,-2.508 -0.18482,-3.75347a36.90711,36.90711 0 0 1 -1.62991,-9.77c-0.11092,-3.70032 0.41115,-7.562 2.45972,-10.44807c2.64387,-3.72475 7.37142,-5.13883 11.84544,-5.0363s8.87547,1.48362 13.30713,2.35665c1.52992,0.30139 3.32826,0.4555 4.35153,-0.73025c1.08805,-1.26082 0.68844,-3.3014 0.22563,-5.00376c-1.20094,-4.41743 -2.475,-8.98461 -5.26525,-12.55224a18.89839,18.89839 0 0 0 -12.06081,-6.79014a28.93848,28.93848 0 0 0 -13.46236,1.52838a36.09628,36.09628 0 0 0 -17.68285,12.3186a29.23592,29.23592 0 0 0 -5.57809,21.60019a26.66712,26.66712 0 0 0 9.88579,16.85462l1.90839,-1.47898z"/>
 </g>
</svg>